<svg width="140" height="26" viewBox="0 0 140 26" fill="none" xmlns="http://www.w3.org/2000/svg">
<path d="M17.9375 0.203125L14.5938 25.5H4.60938L0.8125 0.203125H7.75C8.55208 7.17188 9.125 13.0625 9.46875 17.875C9.8125 13.0104 10.1719 8.6875 10.5469 4.90625L11 0.203125H17.9375ZM25.375 0.203125V3.5H18.875V0.203125H25.375ZM25.375 4.76562V25.5H18.875V4.76562H25.375ZM42.0156 0.203125V25.5H35.7031V24C35.099 24.625 34.4635 25.0938 33.7969 25.4062C33.1302 25.7188 32.4323 25.875 31.7031 25.875C30.724 25.875 29.875 25.6198 29.1562 25.1094C28.4375 24.5885 27.974 23.9896 27.7656 23.3125C27.5677 22.6354 27.4688 21.5312 27.4688 20V10.2969C27.4688 8.70312 27.5677 7.57292 27.7656 6.90625C27.974 6.23958 28.4427 5.65625 29.1719 5.15625C29.901 4.64583 30.7708 4.39062 31.7812 4.39062C32.5625 4.39062 33.276 4.53125 33.9219 4.8125C34.5781 5.09375 35.1719 5.51562 35.7031 6.07812V0.203125H42.0156ZM35.7031 9.98438C35.7031 9.22396 35.6354 8.71354 35.5 8.45312C35.375 8.19271 35.1198 8.0625 34.7344 8.0625C34.3594 8.0625 34.1042 8.18229 33.9688 8.42188C33.8438 8.65104 33.7812 9.17188 33.7812 9.98438V20.1406C33.7812 20.9844 33.8438 21.5417 33.9688 21.8125C34.0938 22.0729 34.3333 22.2031 34.6875 22.2031C35.0938 22.2031 35.3646 22.0573 35.5 21.7656C35.6354 21.4635 35.7031 20.7344 35.7031 19.5781V9.98438ZM58.5781 15.5H50.4062V19.9844C50.4062 20.9219 50.474 21.526 50.6094 21.7969C50.7448 22.0677 51.0052 22.2031 51.3906 22.2031C51.8698 22.2031 52.1875 22.026 52.3438 21.6719C52.5104 21.3073 52.5938 20.6094 52.5938 19.5781V16.8438H58.5781V18.375C58.5781 19.6562 58.4948 20.6406 58.3281 21.3281C58.1719 22.0156 57.7969 22.75 57.2031 23.5312C56.6094 24.3125 55.8542 24.901 54.9375 25.2969C54.0312 25.6823 52.8906 25.875 51.5156 25.875C50.1823 25.875 49.0052 25.6823 47.9844 25.2969C46.9635 24.9115 46.1667 24.3854 45.5938 23.7188C45.0312 23.0417 44.6406 22.3021 44.4219 21.5C44.2031 20.6875 44.0938 19.5104 44.0938 17.9688V11.9219C44.0938 10.1094 44.3385 8.68229 44.8281 7.64062C45.3177 6.58854 46.1198 5.78646 47.2344 5.23438C48.349 4.67188 49.6302 4.39062 51.0781 4.39062C52.849 4.39062 54.3073 4.72917 55.4531 5.40625C56.6094 6.07292 57.4167 6.96354 57.875 8.07812C58.3438 9.18229 58.5781 10.7396 58.5781 12.75V15.5ZM52.25 12.125V10.6094C52.25 9.53646 52.1927 8.84375 52.0781 8.53125C51.9635 8.21875 51.7292 8.0625 51.375 8.0625C50.9375 8.0625 50.6667 8.19792 50.5625 8.46875C50.4583 8.72917 50.4062 9.44271 50.4062 10.6094V12.125H52.25ZM74.9375 12.0469V17.125C74.9375 18.9896 74.8438 20.3594 74.6562 21.2344C74.4688 22.099 74.0677 22.9115 73.4531 23.6719C72.8385 24.4219 72.0469 24.9792 71.0781 25.3438C70.1198 25.6979 69.0156 25.875 67.7656 25.875C66.3698 25.875 65.1875 25.724 64.2188 25.4219C63.25 25.1094 62.4948 24.6458 61.9531 24.0312C61.4219 23.4062 61.0417 22.6562 60.8125 21.7812C60.5833 20.8958 60.4688 19.5729 60.4688 17.8125V12.5C60.4688 10.5729 60.6771 9.06771 61.0938 7.98438C61.5104 6.90104 62.2604 6.03125 63.3438 5.375C64.4271 4.71875 65.8125 4.39062 67.5 4.39062C68.9167 4.39062 70.1302 4.60417 71.1406 5.03125C72.1615 5.44792 72.9479 5.99479 73.5 6.67188C74.0521 7.34896 74.4271 8.04688 74.625 8.76562C74.8333 9.48438 74.9375 10.5781 74.9375 12.0469ZM68.625 10.4844C68.625 9.42188 68.5677 8.75521 68.4531 8.48438C68.3385 8.20312 68.0938 8.0625 67.7188 8.0625C67.3438 8.0625 67.0938 8.20312 66.9688 8.48438C66.8438 8.75521 66.7812 9.42188 66.7812 10.4844V19.8438C66.7812 20.8229 66.8438 21.4635 66.9688 21.7656C67.0938 22.0573 67.3385 22.2031 67.7031 22.2031C68.0781 22.2031 68.3229 22.0677 68.4375 21.7969C68.5625 21.526 68.625 20.9427 68.625 20.0469V10.4844ZM90.4688 0.203125V5.26562H86.5625V25.5H79.9844V5.26562H76.0938V0.203125H90.4688ZM106.234 4.76562V25.5H99.8125L99.9219 23.7812C99.4844 24.4792 98.9427 25.0052 98.2969 25.3594C97.6615 25.7031 96.9271 25.875 96.0938 25.875C95.1458 25.875 94.3594 25.7083 93.7344 25.375C93.1094 25.0417 92.6458 24.599 92.3438 24.0469C92.0521 23.4948 91.8698 22.9219 91.7969 22.3281C91.724 21.724 91.6875 20.5312 91.6875 18.75V4.76562H98V18.875C98 20.4896 98.0469 21.4479 98.1406 21.75C98.2448 22.0521 98.5156 22.2031 98.9531 22.2031C99.4219 22.2031 99.6979 22.0469 99.7812 21.7344C99.875 21.4219 99.9219 20.4167 99.9219 18.7188V4.76562H106.234ZM114.812 0.203125V6.1875C115.333 5.58333 115.911 5.13542 116.547 4.84375C117.193 4.54167 117.891 4.39062 118.641 4.39062C119.505 4.39062 120.255 4.52604 120.891 4.79688C121.526 5.06771 122.01 5.44792 122.344 5.9375C122.677 6.42708 122.875 6.90625 122.938 7.375C123.01 7.84375 123.047 8.84375 123.047 10.375V19.7188C123.047 21.2396 122.943 22.375 122.734 23.125C122.536 23.8646 122.062 24.5104 121.312 25.0625C120.562 25.6042 119.672 25.875 118.641 25.875C117.901 25.875 117.208 25.7135 116.562 25.3906C115.927 25.0677 115.344 24.5833 114.812 23.9375L114.406 25.5H108.5V0.203125H114.812ZM116.734 10.6562C116.734 9.58333 116.667 8.88542 116.531 8.5625C116.396 8.22917 116.13 8.0625 115.734 8.0625C115.349 8.0625 115.099 8.20833 114.984 8.5C114.87 8.78125 114.812 9.5 114.812 10.6562V19.5938C114.812 20.7083 114.875 21.4219 115 21.7344C115.135 22.0469 115.396 22.2031 115.781 22.2031C116.177 22.2031 116.432 22.0417 116.547 21.7188C116.672 21.3958 116.734 20.6198 116.734 19.3906V10.6562ZM139.422 15.5H131.25V19.9844C131.25 20.9219 131.318 21.526 131.453 21.7969C131.589 22.0677 131.849 22.2031 132.234 22.2031C132.714 22.2031 133.031 22.026 133.188 21.6719C133.354 21.3073 133.438 20.6094 133.438 19.5781V16.8438H139.422V18.375C139.422 19.6562 139.339 20.6406 139.172 21.3281C139.016 22.0156 138.641 22.75 138.047 23.5312C137.453 24.3125 136.698 24.901 135.781 25.2969C134.875 25.6823 133.734 25.875 132.359 25.875C131.026 25.875 129.849 25.6823 128.828 25.2969C127.807 24.9115 127.01 24.3854 126.438 23.7188C125.875 23.0417 125.484 22.3021 125.266 21.5C125.047 20.6875 124.938 19.5104 124.938 17.9688V11.9219C124.938 10.1094 125.182 8.68229 125.672 7.64062C126.161 6.58854 126.964 5.78646 128.078 5.23438C129.193 4.67188 130.474 4.39062 131.922 4.39062C133.693 4.39062 135.151 4.72917 136.297 5.40625C137.453 6.07292 138.26 6.96354 138.719 8.07812C139.188 9.18229 139.422 10.7396 139.422 12.75V15.5ZM133.094 12.125V10.6094C133.094 9.53646 133.036 8.84375 132.922 8.53125C132.807 8.21875 132.573 8.0625 132.219 8.0625C131.781 8.0625 131.51 8.19792 131.406 8.46875C131.302 8.72917 131.25 9.44271 131.25 10.6094V12.125H133.094Z" fill="white"/>
</svg>
